<svg xmlns="http://www.w3.org/2000/svg" viewBox="0 0 658.65 540.67" width="626.65" height="508.67" style="background-color: transparent;"><defs><style>@import url('https://fonts.googleapis.com/css2?family=Caveat+Brush&amp;family=Source+Code+Pro&amp;family=Source+Sans+Pro&amp;family=Crimson+Pro&amp;display=block');</style></defs><g id="203d0491-47db-45a1-174b-a930f9ae3e8f_svg" class="tl-centered-g" transform="translate(106.67, 216.67) rotate(0.00, 66.17, 24.84)"><path d="M 132.60,33.05 Q 132.60,33.05 132.72,35.12 132.84,37.19 132.95,39.87 133.05,42.56 131.23,45.23 129.40,47.91 122.10,48.62 114.80,49.33 106.47,49.42 98.13,49.51 89.48,49.49 80.83,49.48 72.10,49.53 63.37,49.58 54.61,49.72 45.86,49.85 37.10,49.99 28.34,50.12 19.55,50.25 10.77,50.38 6.61,48.70 2.45,47.01 1.25,44.14 0.05,41.26 -0.16,38.29 -0.38,35.31 -0.37,32.42 -0.37,29.53 -0.41,26.66 -0.45,23.79 -0.58,20.92 -0.70,18.05 -0.82,15.18 -0.94,12.31 -1.04,9.36 -1.13,6.40 0.69,3.66 2.53,0.91 9.82,0.25 17.11,-0.40 25.43,-0.41 33.76,-0.42 42.39,-0.32 51.03,-0.22 59.75,-0.18 68.47,-0.14 77.21,-0.19 85.95,-0.23 94.70,-0.28 103.45,-0.32 112.22,-0.37 120.99,-0.41 125.13,1.28 129.28,2.98 130.49,5.80 131.70,8.61 131.93,11.51 132.17,14.40 132.18,17.21 132.19,20.01 132.24,22.80 132.30,25.58 132.43,28.36 132.57,31.14 132.72,34.87 132.86,38.60 132.83,38.84 132.79,39.07 132.69,39.28 132.58,39.49 132.41,39.66 132.24,39.82 132.02,39.93 131.81,40.03 131.58,40.06 131.34,40.09 131.11,40.04 130.88,39.99 130.67,39.87 130.47,39.75 130.31,39.58 130.16,39.40 130.06,39.18 129.97,38.96 129.96,38.72 129.94,38.49 130.00,38.26 130.06,38.03 130.19,37.83 130.32,37.63 130.51,37.49 130.69,37.34 130.92,37.26 131.14,37.18 131.38,37.18 131.62,37.18 131.84,37.25 132.07,37.32 132.26,37.46 132.45,37.60 132.58,37.80 132.72,37.99 132.79,38.22 132.85,38.45 132.84,38.68 132.83,38.92 132.75,39.14 132.66,39.36 132.51,39.54 132.36,39.73 132.16,39.85 131.96,39.98 131.73,40.03 131.50,40.09 131.26,40.06 131.03,40.04 130.81,39.94 130.59,39.85 130.42,39.69 130.25,39.53 130.13,39.32 130.02,39.11 129.98,38.88 129.94,38.65 129.94,38.65 129.94,38.65 129.97,34.91 130.01,31.18 130.06,28.40 130.11,25.62 130.06,22.86 130.00,20.09 129.81,17.38 129.62,14.66 129.30,12.17 128.97,9.67 128.23,7.57 127.48,5.48 124.18,4.17 120.89,2.87 112.16,2.73 103.43,2.59 94.69,2.45 85.94,2.31 77.20,2.18 68.46,2.04 59.74,2.00 51.03,1.96 42.41,2.04 33.79,2.12 25.56,2.32 17.33,2.51 10.83,2.90 4.32,3.30 3.19,5.00 2.06,6.70 2.02,9.49 1.98,12.28 1.91,15.15 1.85,18.02 1.78,20.89 1.72,23.75 1.76,26.61 1.80,29.46 1.98,32.27 2.16,35.07 2.48,37.66 2.79,40.24 3.53,42.40 4.27,44.55 7.56,45.83 10.84,47.10 19.58,47.15 28.32,47.19 37.08,47.24 45.84,47.30 54.60,47.34 63.35,47.39 72.08,47.34 80.81,47.29 89.44,47.12 98.08,46.95 106.32,46.68 114.56,46.41 121.07,45.97 127.58,45.52 128.72,43.89 129.86,42.25 129.89,39.74 129.91,37.23 129.98,35.15 130.04,33.08 130.06,32.93 130.07,32.78 130.13,32.63 130.18,32.49 130.27,32.36 130.35,32.23 130.47,32.13 130.58,32.02 130.71,31.95 130.85,31.87 131.00,31.84 131.15,31.80 131.30,31.79 131.46,31.79 131.61,31.83 131.76,31.86 131.89,31.93 132.03,32.00 132.15,32.10 132.27,32.20 132.35,32.33 132.44,32.45 132.50,32.60 132.56,32.74 132.58,32.89 Z" fill="#1d1d1d" stroke="#1d1d1d" stroke-width="2" pointer-events="none"/></g><g text-align="center" text-anchor="middle" fill="#1d1d1d" transform="translate(139.34, 223.67) rotate(0.00, 40.00, 19.00)"><text y="14" letter-spacing="-0.84" font-size="28px" font-family="Caveat Brush" text-align="center" alignment-baseline="central" x="40">go-woo </text></g><g id="954cc254-4606-4009-19ae-5a9c7571e7a5_svg" class="tl-centered-g" transform="translate(127.34, 32.33) rotate(0.00, 9.00, 10.00)"><path d="M 7.79,1.56 Q 7.79,1.56 10.75,1.05 13.70,0.53 15.77,1.80 17.84,3.07 19.20,5.53 20.56,7.99 20.11,11.12 19.66,14.26 16.98,16.62 14.30,18.98 10.45,19.36 6.59,19.74 3.31,17.84 0.03,15.93 -1.04,12.65 -2.13,9.38 -0.72,6.42 0.68,3.46 3.53,1.96 6.38,0.47 9.26,0.48 12.14,0.50 14.88,3.17 17.62,5.84 17.61,5.84 17.61,5.85 17.61,5.85 17.60,5.85 14.76,4.60 11.92,3.34 9.67,3.14 7.41,2.94 5.14,3.95 2.87,4.96 1.66,7.06 0.45,9.16 1.14,11.51 1.83,13.85 4.24,15.28 6.65,16.72 9.53,16.47 12.42,16.23 14.28,14.66 16.14,13.09 16.54,11.21 16.94,9.33 16.19,7.76 15.45,6.19 14.22,5.21 13.00,4.23 10.39,2.91 Z" fill="#1d1d1d" stroke="#1d1d1d" stroke-width="2" pointer-events="none" stroke-linecap="round" stroke-linejoin="round"/></g><g id="d2fed2ae-3df3-4d45-3bbe-e867ff0e855d_svg" class="tl-centered-g" transform="translate(16.00, 495.67) rotate(0.00, 9.00, 10.00)"><path d="M 6.70,0.74 Q 6.70,0.74 9.19,-0.08 11.68,-0.91 13.71,-0.14 15.73,0.62 17.53,2.46 19.33,4.29 20.11,7.11 20.88,9.94 19.92,12.98 18.95,16.03 16.27,18.12 13.60,20.21 10.15,20.48 6.71,20.75 3.76,19.18 0.82,17.62 -0.68,14.93 -2.20,12.24 -2.09,9.43 -1.98,6.61 -0.70,4.45 0.57,2.29 4.06,1.44 7.55,0.59 7.55,0.60 7.55,0.60 7.55,0.61 7.55,0.61 5.42,2.42 3.29,4.23 2.18,5.65 1.07,7.06 0.77,9.09 0.47,11.12 1.45,13.18 2.43,15.25 4.59,16.49 6.76,17.74 9.30,17.57 11.84,17.41 13.76,15.98 15.68,14.56 16.41,12.55 17.15,10.53 16.74,8.63 16.34,6.73 13.93,4.65 11.51,2.58 9.11,1.67 Z" fill="#1d1d1d" stroke="#1d1d1d" stroke-width="2" pointer-events="none" stroke-linecap="round" stroke-linejoin="round"/></g><g id="1d3f1746-08cd-4faf-155f-7db9b8174e2d_svg" class="tl-centered-g" transform="translate(64.00, 493.67) rotate(0.00, 9.00, 10.00)"><path d="M 2.12,16.48 Q 2.12,16.48 0.59,13.45 -0.92,10.43 -0.57,7.68 -0.22,4.93 1.38,2.25 2.98,-0.41 5.93,-1.71 8.89,-3.00 11.99,-1.57 15.09,-0.14 16.80,3.68 18.50,7.50 17.94,11.90 17.37,16.29 14.77,19.13 12.16,21.98 8.94,21.97 5.72,21.97 3.41,19.61 1.10,17.25 0.28,14.09 -0.53,10.94 -0.19,8.27 0.14,5.60 1.39,4.08 2.64,2.56 2.64,2.57 2.65,2.57 2.65,2.57 2.66,2.57 2.54,4.23 2.41,5.89 2.18,8.14 1.94,10.39 2.53,13.01 3.11,15.62 4.75,17.59 6.38,19.56 8.66,19.75 10.95,19.93 12.88,17.80 14.81,15.67 15.32,12.04 15.84,8.41 14.60,5.33 13.36,2.24 11.29,1.10 9.21,-0.02 7.36,0.74 5.51,1.52 4.30,3.52 3.09,5.53 2.70,7.66 2.31,9.78 2.23,13.13 Z" fill="#1d1d1d" stroke="#1d1d1d" stroke-width="2" pointer-events="none" stroke-linecap="round" stroke-linejoin="round"/></g><g id="1512b5e2-4fcc-49b1-1228-5c8a383672f5_svg" class="tl-centered-g" transform="translate(107.34, 495.01) rotate(0.00, 9.00, 10.00)"><path d="M 2.44,18.37 Q 2.44,18.37 0.07,16.73 -2.30,15.09 -2.89,12.75 -3.49,10.41 -2.90,7.59 -2.31,4.76 -0.13,2.28 2.03,-0.18 5.45,-1.18 8.87,-2.18 12.38,-1.01 15.90,0.14 18.09,3.16 20.28,6.18 20.30,9.83 20.32,13.48 18.39,16.33 16.46,19.19 13.59,20.48 10.73,21.77 7.98,21.59 5.23,21.41 2.64,18.55 0.05,15.70 0.05,15.70 0.05,15.69 0.06,15.69 0.06,15.69 2.85,17.16 5.64,18.64 7.76,18.99 9.89,19.35 12.22,18.47 14.55,17.59 16.16,15.39 17.77,13.19 17.85,10.33 17.92,7.47 16.30,5.10 14.67,2.72 12.04,1.80 9.42,0.88 6.93,1.60 4.43,2.32 2.87,4.07 1.31,5.82 0.82,7.80 0.32,9.78 0.52,11.40 0.72,13.01 1.59,15.68 Z" fill="#1d1d1d" stroke="#1d1d1d" stroke-width="2" pointer-events="none" stroke-linecap="round" stroke-linejoin="round"/></g><g id="b0c5aac4-1402-4ece-0350-d0511e846e27_svg" class="tl-centered-g" transform="translate(190.00, 494.34) rotate(0.00, 9.00, 10.00)"><path d="M 9.79,20.72 Q 9.79,20.72 7.67,21.19 5.55,21.65 3.95,20.28 2.34,18.90 1.28,16.39 0.22,13.88 0.21,10.61 0.20,7.34 1.49,4.26 2.79,1.17 5.37,-0.52 7.95,-2.22 10.75,-1.45 13.55,-0.67 15.31,2.22 17.07,5.13 17.30,8.64 17.52,12.14 16.58,15.02 15.63,17.90 14.04,19.62 12.45,21.34 9.56,20.78 6.68,20.22 6.68,20.21 6.68,20.21 6.68,20.20 6.68,20.20 8.55,19.57 10.43,18.94 11.66,17.87 12.90,16.81 13.73,14.52 14.57,12.24 14.40,9.42 14.22,6.59 13.08,4.42 11.93,2.25 10.30,1.50 8.67,0.76 7.15,1.73 5.64,2.69 4.73,5.04 3.82,7.39 3.91,9.93 4.00,12.48 5.35,15.29 6.70,18.11 8.24,19.41 Z" fill="#1d1d1d" stroke="#1d1d1d" stroke-width="2" pointer-events="none" stroke-linecap="round" stroke-linejoin="round"/></g><g id="c7981480-147e-45e8-3347-c9e086314aec_svg" class="tl-centered-g" transform="translate(226.67, 493.67) rotate(0.00, 9.00, 10.00)"><path d="M 7.13,-1.02 Q 7.13,-1.02 9.06,-1.98 10.98,-2.94 12.75,-1.93 14.52,-0.93 15.90,1.32 17.29,3.58 17.73,6.84 18.17,10.10 17.39,13.51 16.61,16.92 14.53,19.41 12.45,21.89 9.61,22.22 6.76,22.55 4.45,20.50 2.14,18.45 1.18,15.12 0.23,11.78 0.52,8.58 0.81,5.37 1.83,3.02 2.85,0.68 5.69,-0.34 8.53,-1.37 8.53,-1.37 8.53,-1.36 8.53,-1.36 8.54,-1.36 7.05,0.35 5.57,2.06 4.64,3.88 3.70,5.70 3.46,8.36 3.22,11.02 3.94,13.62 4.65,16.22 6.04,17.83 7.43,19.44 9.03,19.45 10.64,19.45 12.03,17.76 13.41,16.06 13.94,13.32 14.46,10.58 14.03,8.07 13.59,5.57 12.08,3.20 10.57,0.84 8.85,-0.08 Z" fill="#1d1d1d" stroke="#1d1d1d" stroke-width="2" pointer-events="none" stroke-linecap="round" stroke-linejoin="round"/></g><g text-align="center" text-anchor="middle" fill="#1d1d1d" transform="translate(141.33, 482.67) rotate(0.00, 20.00, 19.00)"><text y="14" letter-spacing="-0.84" font-size="28px" font-family="Caveat Brush" text-align="center" alignment-baseline="central" x="20">……</text></g><g text-align="center" text-anchor="middle" fill="#1d1d1d" transform="translate(311.66, 486.67) rotate(0.00, 91.00, 19.00)"><text y="14" letter-spacing="-0.84" font-size="28px" font-family="Caveat Brush" text-align="center" alignment-baseline="central" x="91">Southward devices </text></g><g id="4444d930-9eb6-4fe7-24e6-67f3fdf1ebb8_svg" class="tl-centered-g" transform="translate(31.33, 449.00) rotate(0.00, 133.00, 21.34)"><g opacity="1"><path d="M -1.41,34.71 Q -1.41,34.71 0.15,33.14 1.73,31.57 2.71,30.58 3.69,29.58 4.86,28.19 6.02,26.81 8.33,25.67 10.64,24.54 13.38,23.37 16.12,22.21 18.96,21.00 21.80,19.79 23.83,18.98 25.87,18.17 27.55,17.41 29.24,16.65 31.20,16.19 33.16,15.73 34.98,15.46 36.80,15.19 38.17,14.85 39.53,14.50 41.65,14.09 43.76,13.67 45.29,13.45 46.82,13.23 48.90,12.90 50.99,12.57 52.62,12.41 54.25,12.24 55.92,12.15 57.59,12.07 59.96,12.07 62.32,12.07 64.15,12.27 65.97,12.46 67.27,12.71 68.57,12.96 70.63,13.46 72.70,13.96 74.18,14.12 75.67,14.29 77.22,14.34 78.76,14.40 80.76,14.76 82.77,15.12 85.41,15.38 88.05,15.65 90.87,15.83 93.69,16.02 95.85,16.15 98.01,16.28 99.35,16.23 100.70,16.18 102.37,16.04 104.05,15.90 105.84,15.35 107.63,14.80 109.16,14.34 110.70,13.89 112.98,13.01 115.26,12.13 117.46,11.20 119.66,10.27 121.87,9.45 124.08,8.63 125.35,7.97 126.61,7.30 128.03,5.67 129.45,4.04 130.14,2.56 130.83,1.08 132.90,0.02 134.97,-1.03 136.68,0.89 138.38,2.81 139.03,4.14 139.68,5.46 140.61,6.88 141.55,8.30 142.64,9.54 143.74,10.77 144.85,11.49 145.96,12.22 147.04,12.99 148.12,13.77 149.68,14.20 151.24,14.63 153.74,14.89 156.23,15.15 158.67,15.42 161.11,15.68 164.88,15.86 168.65,16.05 172.62,15.88 176.59,15.71 180.15,15.49 183.72,15.26 186.11,15.01 188.51,14.75 190.00,14.51 191.48,14.26 192.98,13.70 194.47,13.14 196.12,12.92 197.77,12.70 200.34,12.53 202.91,12.36 205.54,12.28 208.18,12.20 210.17,12.03 212.17,11.86 214.33,11.34 216.48,10.81 217.88,10.62 219.28,10.43 221.50,10.32 223.72,10.21 226.33,10.16 228.94,10.12 230.96,10.11 232.98,10.10 234.40,9.99 235.81,9.87 237.40,9.66 239.00,9.45 240.35,9.30 241.70,9.16 243.30,9.48 244.91,9.81 246.82,10.80 248.74,11.80 250.14,12.57 251.55,13.35 253.01,14.27 254.47,15.19 256.06,16.80 257.65,18.42 258.52,19.84 259.38,21.26 260.27,22.26 261.16,23.26 261.91,24.59 262.65,25.92 263.16,27.26 263.67,28.59 264.51,30.18 265.36,31.78 266.09,33.47 266.83,35.16 267.43,36.36 268.02,37.57 268.68,39.91 269.34,42.26 269.32,42.80 269.30,43.35 269.10,43.86 268.91,44.37 268.56,44.79 268.21,45.21 267.75,45.49 267.29,45.78 266.75,45.91 266.22,46.03 265.68,45.98 265.14,45.93 264.64,45.71 264.14,45.48 263.74,45.11 263.34,44.74 263.07,44.26 262.81,43.78 262.72,43.25 262.62,42.71 262.70,42.17 262.78,41.63 263.03,41.14 263.28,40.66 263.67,40.28 264.06,39.90 264.56,39.66 265.05,39.43 265.59,39.36 266.13,39.29 266.67,39.40 267.20,39.51 267.67,39.79 268.14,40.06 268.50,40.48 268.86,40.89 269.07,41.39 269.28,41.90 269.32,42.44 269.35,42.99 269.21,43.51 269.08,44.04 268.78,44.50 268.47,44.95 268.04,45.29 267.61,45.62 267.10,45.81 266.58,45.99 266.04,45.99 265.49,46.00 264.97,45.83 264.45,45.67 264.02,45.34 263.58,45.02 263.26,44.57 262.95,44.12 262.80,43.60 262.65,43.07 262.65,43.07 262.65,43.07 262.18,41.59 261.72,40.11 261.24,38.70 260.77,37.29 259.71,35.65 258.66,34.00 257.91,31.97 257.16,29.94 256.30,28.17 255.44,26.40 254.47,24.93 253.50,23.45 252.81,21.93 252.13,20.41 251.17,19.49 250.22,18.57 248.81,17.78 247.41,17.00 246.04,15.98 244.67,14.95 243.17,14.24 241.68,13.53 240.37,13.40 239.06,13.28 237.48,13.13 235.89,12.98 234.48,12.93 233.07,12.89 231.07,13.01 229.08,13.14 226.56,13.33 224.04,13.53 220.64,13.90 217.24,14.27 214.86,14.44 212.48,14.62 210.42,14.91 208.35,15.21 205.81,15.43 203.26,15.66 200.77,16.03 198.28,16.40 196.71,16.63 195.14,16.85 193.49,17.06 191.84,17.26 190.35,17.36 188.86,17.46 186.41,17.83 183.96,18.19 180.38,18.56 176.80,18.93 172.70,19.30 168.59,19.66 164.77,19.73 160.94,19.80 158.27,19.86 155.59,19.91 153.00,19.65 150.41,19.40 148.76,18.79 147.12,18.18 145.42,16.87 143.72,15.57 142.28,14.59 140.84,13.61 139.46,12.29 138.09,10.97 136.72,9.40 135.35,7.83 134.25,5.70 133.15,3.57 134.40,3.17 135.65,2.76 134.91,3.91 134.17,5.06 133.00,6.63 131.83,8.20 130.03,9.39 128.22,10.58 126.85,11.21 125.47,11.85 123.46,12.85 121.45,13.85 119.24,15.12 117.03,16.40 114.33,17.54 111.62,18.67 110.28,18.87 108.94,19.07 106.49,19.57 104.04,20.07 102.35,19.90 100.66,19.73 99.31,19.66 97.97,19.58 95.79,19.65 93.62,19.73 90.76,19.82 87.91,19.90 85.13,19.99 82.35,20.07 79.34,20.10 76.33,20.12 74.84,19.94 73.34,19.76 71.28,19.33 69.21,18.90 67.26,18.35 65.30,17.81 63.81,17.54 62.32,17.27 59.98,17.29 57.64,17.30 56.05,17.26 54.46,17.23 52.91,17.21 51.35,17.20 49.17,17.39 46.98,17.57 45.56,17.49 44.14,17.42 42.13,17.48 40.12,17.54 38.65,17.75 37.17,17.96 35.47,18.16 33.77,18.37 32.07,18.76 30.36,19.15 28.66,19.93 26.95,20.71 24.99,21.60 23.03,22.50 20.26,23.84 17.50,25.18 14.95,26.47 12.40,27.76 10.09,29.17 7.78,30.59 6.01,32.22 4.23,33.86 2.82,35.57 1.41,37.28 1.24,37.43 1.06,37.58 0.86,37.69 0.65,37.79 0.43,37.85 0.20,37.90 -0.02,37.90 -0.25,37.89 -0.47,37.83 -0.70,37.78 -0.90,37.67 -1.10,37.56 -1.27,37.40 -1.44,37.25 -1.57,37.05 -1.70,36.86 -1.78,36.65 -1.86,36.43 -1.88,36.20 -1.91,35.97 -1.88,35.74 -1.85,35.51 -1.76,35.30 -1.68,35.08 -1.54,34.89 Z" fill="#1d1d1d" stroke="#1d1d1d" stroke-width="1" stroke-linejoin="round" stroke-linecap="round" pointer-events="none"/></g></g><g text-align="center" text-anchor="middle" fill="#1d1d1d" transform="translate(180.84, 339.33) rotate(0.00, 130.50, 33.00)"><text y="14" letter-spacing="-0.84" font-size="28px" font-family="Caveat Brush" text-align="center" alignment-baseline="central" x="130.5">Countless business protocol </text><text y="42" letter-spacing="-0.84" font-size="28px" font-family="Caveat Brush" text-align="center" alignment-baseline="central" x="130.5">used by multi tenant</text></g><g id="d17c19fd-c17a-40fa-3986-1f5297878719_svg" class="tl-centered-g" transform="translate(156.67, 272.34) rotate(0.00, 7.67, 84.00)"><g opacity="1"><path d="M 6.26,168 Q 6.26,168 6.29,166.20 6.32,164.41 6.68,162.41 7.04,160.40 7.57,157.86 8.10,155.32 8.71,152.86 9.31,150.39 9.77,148.58 10.22,146.76 10.95,142.99 11.67,139.21 12.23,135.34 12.79,131.47 13.10,128.73 13.41,126.00 13.52,124.33 13.62,122.66 13.74,119.10 13.86,115.53 13.93,113.10 14.00,110.66 14.04,108.42 14.09,106.18 14.04,104.50 14.00,102.81 13.74,100.77 13.48,98.74 13.29,96.94 13.09,95.15 12.74,93.03 12.39,90.91 12.04,88.96 11.70,87.02 11.30,85.37 10.90,83.72 10.63,82.16 10.36,80.59 10.23,78.81 10.10,77.03 9.92,75.21 9.73,73.40 9.50,71.49 9.27,69.58 8.97,67.80 8.68,66.01 8.30,64.61 7.93,63.22 7.66,61.93 7.40,60.64 6.91,58.03 6.42,55.42 6.32,53.90 6.23,52.38 6.05,50.89 5.87,49.40 5.72,48.06 5.58,46.72 5.37,44.79 5.16,42.87 5.07,40.58 4.99,38.28 4.97,35.73 4.96,33.18 4.98,31.72 5.01,30.26 5.18,28.74 5.35,27.21 5.62,25.65 5.89,24.08 6.19,22.60 6.48,21.13 6.62,19.82 6.76,18.52 7.04,16.83 7.32,15.15 7.51,13.72 7.70,12.30 8.05,10.38 8.39,8.47 8.70,6.89 9.01,5.31 9.02,3.76 9.03,2.20 10.17,2.93 11.32,3.65 10.63,5.15 9.95,6.65 9.34,7.93 8.74,9.22 7.61,10.70 6.49,12.19 5.76,13.42 5.03,14.64 3.50,16.32 1.97,18.00 1.49,18.25 1.01,18.49 0.47,18.57 -0.05,18.65 -0.58,18.56 -1.11,18.46 -1.58,18.20 -2.05,17.94 -2.41,17.54 -2.78,17.15 -3.00,16.66 -3.21,16.16 -3.26,15.63 -3.31,15.09 -3.19,14.57 -3.06,14.04 -2.78,13.59 -2.50,13.13 -2.08,12.79 -1.66,12.45 -1.16,12.26 -0.66,12.07 -0.12,12.04 0.41,12.02 0.92,12.18 1.44,12.33 1.88,12.64 2.32,12.95 2.64,13.38 2.96,13.81 3.12,14.33 3.29,14.84 3.28,15.38 3.27,15.92 3.09,16.42 2.91,16.93 2.58,17.35 2.24,17.78 1.79,18.07 1.34,18.37 0.82,18.50 0.30,18.64 -0.23,18.60 -0.76,18.56 -1.26,18.35 -1.76,18.15 -2.16,17.79 -2.56,17.44 -2.83,16.97 -3.10,16.51 -3.21,15.98 -3.32,15.45 -3.25,14.92 -3.19,14.38 -2.95,13.90 -2.72,13.41 -2.34,13.03 -1.96,12.64 -1.97,12.64 -1.97,12.65 -0.73,11.32 0.50,10.00 1.18,8.81 1.86,7.63 2.82,6.56 3.78,5.49 4.54,4.11 5.30,2.73 5.95,1.54 6.59,0.35 7.85,-0.62 9.11,-1.60 11.07,-1.55 13.04,-1.50 13.92,1.12 14.80,3.74 14.61,5.05 14.43,6.35 14.00,7.81 13.57,9.27 13.13,11.32 12.69,13.36 12.36,14.72 12.03,16.08 11.58,17.54 11.13,19.00 10.96,20.48 10.80,21.96 10.54,23.35 10.29,24.74 9.97,27.50 9.65,30.26 9.68,33.00 9.71,35.74 9.70,38.17 9.69,40.60 9.65,42.50 9.60,44.39 9.66,46.66 9.72,48.93 9.92,50.56 10.13,52.18 10.26,54.84 10.39,57.49 10.66,60.03 10.93,62.57 11.18,64.06 11.43,65.56 11.73,67.38 12.02,69.21 12.32,71.14 12.61,73.07 12.84,74.96 13.07,76.85 13.16,78.54 13.25,80.23 13.36,81.71 13.48,83.18 13.78,84.88 14.08,86.57 14.46,88.52 14.84,90.47 15.26,92.69 15.69,94.91 15.81,96.66 15.93,98.41 16.26,100.62 16.58,102.83 16.50,104.52 16.43,106.21 16.42,108.46 16.40,110.71 16.38,113.15 16.35,115.60 16.29,119.25 16.22,122.91 16.00,124.58 15.77,126.25 15.49,129.03 15.22,131.80 14.70,135.74 14.19,139.67 13.51,143.55 12.84,147.43 12.39,149.21 11.93,150.99 11.43,153.41 10.93,155.84 10.54,158.37 10.14,160.89 9.91,162.66 9.67,164.42 9.70,166.21 9.73,168 9.71,168.20 9.68,168.41 9.61,168.61 9.53,168.80 9.41,168.97 9.29,169.15 9.14,169.28 8.98,169.42 8.80,169.52 8.61,169.62 8.41,169.67 8.20,169.72 7.99,169.72 7.79,169.72 7.58,169.67 7.38,169.62 7.19,169.52 7.01,169.42 6.85,169.28 6.70,169.15 6.58,168.97 6.46,168.80 6.38,168.61 6.31,168.41 6.28,168.20 Z" fill="#1d1d1d" stroke="#1d1d1d" stroke-width="1" stroke-linejoin="round" stroke-linecap="round" pointer-events="none"/></g></g><g id="4a41f292-ab98-42d8-31dd-941b58f059a9_svg" class="tl-centered-g" transform="translate(168.00, 275.00) rotate(0.00, 3.33, 6.33)"><g opacity="1"><path d="M 2.72,-0.60 Q 2.72,-0.60 2.97,0.74 3.22,2.10 3.58,3.50 3.94,4.90 4.63,6.35 5.31,7.79 6.72,9.07 8.12,10.34 8.45,10.64 8.79,10.93 9.01,11.31 9.23,11.70 9.32,12.13 9.40,12.57 9.35,13.01 9.29,13.45 9.10,13.84 8.91,14.24 8.59,14.56 8.28,14.88 7.89,15.08 7.49,15.28 7.05,15.34 6.62,15.40 6.18,15.33 5.74,15.25 5.36,15.03 4.97,14.82 4.67,14.49 4.37,14.16 4.19,13.76 4.01,13.35 3.97,12.91 3.93,12.47 4.03,12.04 4.14,11.60 4.37,11.23 4.61,10.85 4.95,10.57 5.30,10.29 5.71,10.13 6.12,9.98 6.57,9.96 7.01,9.95 7.44,10.07 7.86,10.20 8.22,10.45 8.59,10.71 8.85,11.07 9.11,11.43 9.24,11.85 9.38,12.27 9.37,12.71 9.36,13.16 9.21,13.58 9.06,13.99 8.79,14.34 8.51,14.69 8.14,14.93 7.77,15.17 7.34,15.28 6.91,15.39 6.47,15.36 6.03,15.33 5.62,15.16 5.21,14.99 5.21,14.99 5.21,14.99 3.02,12.73 0.84,10.48 -0.02,8.45 -0.89,6.41 -1.46,4.84 -2.03,3.26 -2.37,1.93 -2.72,0.60 -2.75,0.26 -2.78,-0.06 -2.74,-0.39 -2.69,-0.73 -2.56,-1.04 -2.43,-1.35 -2.24,-1.62 -2.04,-1.89 -1.78,-2.11 -1.53,-2.33 -1.22,-2.48 -0.92,-2.63 -0.59,-2.70 -0.27,-2.77 0.06,-2.76 0.40,-2.76 0.72,-2.67 1.05,-2.58 1.34,-2.42 1.63,-2.25 1.88,-2.02 2.13,-1.80 2.31,-1.51 2.50,-1.23 2.61,-0.92 Z" fill="#1d1d1d" stroke="#1d1d1d" stroke-width="1" stroke-linejoin="round" stroke-linecap="round" pointer-events="none"/></g></g><g id="adeaa6af-1183-4b17-1a4a-7f54d734ab4d_svg" class="tl-centered-g" transform="translate(156.67, 416.34) rotate(0.00, 9.33, 12.33)"><g opacity="1"><path d="M 2.51,3.93 Q 2.51,3.93 3.18,5.31 3.85,6.70 4.42,7.98 4.99,9.26 6.02,11.18 7.05,13.10 7.47,14.35 7.90,15.60 8.55,17.30 9.20,19.00 9.95,20.55 10.69,22.09 10.85,22.69 11.01,23.29 11.03,23.67 11.05,24.05 10.98,24.43 10.91,24.80 10.75,25.14 10.59,25.49 10.36,25.79 10.12,26.09 9.82,26.32 9.52,26.55 9.17,26.71 8.82,26.86 8.45,26.93 8.07,26.99 7.69,26.97 7.31,26.94 6.95,26.82 6.59,26.71 6.27,26.51 5.94,26.31 5.67,26.04 5.41,25.77 5.21,25.44 5.02,25.12 4.91,24.75 4.80,24.39 5.40,21.44 6.01,18.49 6.44,17.24 6.88,15.99 7.53,14.43 8.17,12.88 8.85,11.40 9.53,9.92 10.41,7.59 11.29,5.27 11.82,3.87 12.35,2.48 14.83,0.03 17.30,-2.40 17.72,-2.56 18.14,-2.71 18.59,-2.72 19.03,-2.73 19.46,-2.60 19.89,-2.47 20.25,-2.21 20.61,-1.95 20.87,-1.58 21.13,-1.22 21.27,-0.79 21.40,-0.36 21.38,0.07 21.37,0.52 21.21,0.94 21.06,1.36 20.78,1.71 20.50,2.06 20.12,2.30 19.74,2.54 19.31,2.64 18.87,2.75 18.43,2.71 17.98,2.68 17.57,2.50 17.16,2.32 16.83,2.02 16.50,1.72 16.28,1.33 16.06,0.94 15.97,0.50 15.89,0.06 15.95,-0.37 16.01,-0.81 16.21,-1.21 16.41,-1.61 16.73,-1.93 17.05,-2.24 17.45,-2.44 17.85,-2.64 18.29,-2.70 18.74,-2.76 19.18,-2.67 19.61,-2.59 20.00,-2.37 20.39,-2.15 20.69,-1.81 20.99,-1.48 21.16,-1.07 21.34,-0.66 21.38,-0.21 21.41,0.23 21.30,0.66 21.19,1.09 20.95,1.47 20.71,1.85 20.36,2.13 20.01,2.41 20.01,2.40 20.01,2.40 19.13,2.86 18.26,3.31 17.48,4.50 16.71,5.69 15.93,7.48 15.16,9.28 14.70,10.55 14.23,11.83 13.74,13.22 13.25,14.62 12.86,16.10 12.46,17.58 12.10,19.13 11.74,20.68 11.38,21.99 11.01,23.29 11.03,23.67 11.05,24.05 10.98,24.43 10.91,24.80 10.75,25.14 10.59,25.49 10.36,25.79 10.12,26.09 9.82,26.32 9.52,26.55 9.17,26.71 8.82,26.86 8.45,26.93 8.07,26.99 7.69,26.97 7.31,26.94 6.95,26.82 6.59,26.71 6.27,26.51 5.94,26.31 5.67,26.04 5.41,25.77 5.21,25.44 5.02,25.12 4.91,24.75 4.80,24.39 4.49,23.21 4.19,22.03 3.45,20.26 2.70,18.48 2.35,16.98 1.99,15.47 1.36,14.23 0.73,12.99 -0.06,11.15 -0.87,9.32 -1.69,8.02 -2.51,6.72 -2.64,6.40 -2.77,6.08 -2.82,5.74 -2.87,5.39 -2.84,5.05 -2.80,4.70 -2.69,4.38 -2.57,4.05 -2.38,3.76 -2.19,3.47 -1.94,3.23 -1.68,3.00 -1.38,2.83 -1.08,2.66 -0.74,2.57 -0.41,2.48 -0.06,2.47 0.28,2.46 0.61,2.54 0.95,2.61 1.26,2.77 1.57,2.92 1.84,3.14 2.10,3.37 2.31,3.65 Z" fill="#1d1d1d" stroke="#1d1d1d" stroke-width="1" stroke-linejoin="round" stroke-linecap="round" pointer-events="none"/></g></g><g id="6a3f0b95-e098-42d5-2652-7a598cbc1f44_svg" class="tl-centered-g" transform="translate(58.01, 35.01) rotate(0.00, 9.00, 10.00)"><path d="M 18.48,5.96 Q 18.48,5.96 19.95,7.92 21.41,9.87 21.02,11.94 20.64,14.01 18.93,16.01 17.22,18.01 14.21,19.12 11.21,20.24 7.70,19.82 4.20,19.40 1.42,17.33 -1.36,15.26 -2.21,12.15 -3.07,9.04 -1.58,6.19 -0.09,3.34 2.90,1.84 5.90,0.34 9.06,0.36 12.22,0.38 14.66,1.43 17.10,2.47 18.36,5.62 19.63,8.78 19.62,8.78 19.62,8.78 19.61,8.78 19.61,8.78 17.68,6.94 15.75,5.10 13.91,4.11 12.06,3.13 9.52,3.02 6.98,2.91 4.61,3.97 2.25,5.03 1.01,6.98 -0.23,8.92 0.22,11.07 0.68,13.22 2.73,14.72 4.78,16.22 7.45,16.50 10.13,16.78 12.32,16.00 14.51,15.22 16.27,12.90 18.03,10.57 18.25,8.27 Z" fill="#1d1d1d" stroke="#1d1d1d" stroke-width="2" pointer-events="none" stroke-linecap="round" stroke-linejoin="round"/></g><g id="52813ceb-7866-4487-376a-837d2c0feef7_svg" class="tl-centered-g" transform="translate(182.67, 32.35) rotate(0.00, 9.00, 10.00)"><path d="M 17.62,7.40 Q 17.62,7.40 18.78,9.84 19.94,12.29 19.21,14.39 18.49,16.49 16.71,18.38 14.94,20.27 12.16,21.15 9.37,22.02 6.34,21.10 3.31,20.18 1.24,17.50 -0.83,14.81 -1.12,11.34 -1.40,7.87 0.08,4.90 1.56,1.93 4.16,0.38 6.75,-1.17 9.49,-1.07 12.22,-0.97 14.33,0.31 16.43,1.61 17.14,5.13 17.85,8.64 17.84,8.64 17.84,8.64 17.83,8.64 17.83,8.64 16.04,6.57 14.26,4.50 12.98,3.42 11.70,2.35 9.86,2.04 8.02,1.74 6.12,2.69 4.23,3.64 3.10,5.76 1.97,7.87 2.17,10.34 2.36,12.80 3.68,14.60 5.00,16.41 6.79,17.06 8.58,17.72 10.24,17.30 11.89,16.88 13.66,14.55 15.43,12.22 16.51,9.81 Z" fill="#1d1d1d" stroke="#1d1d1d" stroke-width="2" pointer-events="none" stroke-linecap="round" stroke-linejoin="round"/></g><g id="8ffd1cd0-e757-400b-2ee6-536f74ffa020_svg" class="tl-centered-g" transform="translate(294.67, 30.34) rotate(0.00, 9.00, 10.00)"><path d="M 7.67,18.44 Q 7.67,18.44 5.17,18.31 2.66,18.19 1.31,16.42 -0.04,14.65 -0.51,12.03 -0.98,9.41 0.04,6.54 1.06,3.68 3.67,1.80 6.29,-0.06 9.56,0.20 12.83,0.47 15.16,2.92 17.50,5.36 17.85,8.73 18.21,12.09 16.70,14.85 15.20,17.61 12.71,18.86 10.23,20.12 7.80,19.85 5.37,19.58 3.62,16.54 1.86,13.51 1.87,13.50 1.87,13.50 1.88,13.50 1.88,13.50 4.06,14.76 6.23,16.03 7.70,16.47 9.18,16.91 10.90,16.30 12.62,15.68 13.78,13.85 14.94,12.03 14.79,9.70 14.64,7.37 13.22,5.70 11.80,4.03 9.87,3.74 7.95,3.45 6.38,4.49 4.80,5.53 4.11,7.27 3.42,9.01 4.16,11.77 4.89,14.52 6.29,16.47 Z" fill="#1d1d1d" stroke="#1d1d1d" stroke-width="2" pointer-events="none" stroke-linecap="round" stroke-linejoin="round"/></g><g text-align="center" text-anchor="middle" fill="#1d1d1d" transform="translate(224.00, 16.00) rotate(0.00, 20.00, 19.00)"><text y="14" letter-spacing="-0.84" font-size="28px" font-family="Caveat Brush" text-align="center" alignment-baseline="central" x="20">……</text></g><g text-align="center" text-anchor="middle" fill="#1d1d1d" transform="translate(338.50, 21.34) rotate(0.00, 129.50, 19.00)"><text y="14" letter-spacing="-0.84" font-size="28px" font-family="Caveat Brush" text-align="center" alignment-baseline="central" x="129.5">Northward manager system</text></g><g id="e3558553-a7d2-4c50-3948-99a13c48b7cb_svg" class="tl-centered-g" transform="translate(77.33, 62.34) rotate(0.00, 104.00, 7.00)"><g opacity="1"><path d="M 0.76,-2.69 Q 0.76,-2.69 1.81,-2.39 2.85,-2.08 5.48,-0.99 8.10,0.09 10.31,0.99 12.51,1.89 13.88,2.39 15.25,2.89 16.92,3.47 18.59,4.04 20.62,4.86 22.66,5.67 24.33,6.18 26.00,6.69 27.93,7.23 29.86,7.77 31.50,7.99 33.15,8.21 34.92,8.20 36.69,8.19 38.05,8.18 39.42,8.18 40.74,8.25 42.07,8.31 43.84,8.47 45.61,8.63 47.64,8.83 49.66,9.03 51.23,9.07 52.80,9.11 54.52,9.02 56.25,8.92 58.24,8.80 60.23,8.69 61.51,8.41 62.78,8.14 64.75,8.03 66.72,7.93 68.89,7.71 71.07,7.48 72.50,7.15 73.92,6.82 75.23,6.45 76.53,6.08 78.54,5.65 80.56,5.21 82.54,4.94 84.52,4.68 86.05,4.52 87.57,4.37 88.98,4.51 90.39,4.66 91.97,5.23 93.54,5.80 95.06,6.21 96.59,6.61 98.29,7.31 100.00,8.00 101.16,8.85 102.33,9.69 100.87,9.75 99.41,9.81 100.60,8.85 101.79,7.89 103.65,6.61 105.52,5.34 107.53,5.01 109.54,4.68 111.32,4.65 113.10,4.62 114.41,4.62 115.71,4.62 117.27,4.64 118.82,4.67 120.83,4.91 122.84,5.15 124.66,5.74 126.47,6.34 129.45,7.52 132.42,8.70 134.59,9.32 136.76,9.94 139.44,10.48 142.13,11.02 144.63,11.36 147.14,11.69 149.27,11.90 151.41,12.11 153.04,12.16 154.67,12.20 156.60,12.09 158.53,11.98 161.24,11.97 163.95,11.97 166.05,12.09 168.15,12.22 170.45,12.16 172.75,12.11 175.12,12.09 177.49,12.08 179.80,11.93 182.11,11.79 184.12,11.57 186.14,11.36 187.73,11.15 189.32,10.94 191.31,10.29 193.30,9.64 195.27,8.80 197.24,7.95 198.69,6.71 200.13,5.47 201.78,3.81 203.42,2.15 204.67,0.67 205.92,-0.81 206.21,-1.10 206.50,-1.40 206.87,-1.58 207.24,-1.77 207.64,-1.82 208.05,-1.88 208.46,-1.81 208.86,-1.73 209.22,-1.53 209.58,-1.33 209.86,-1.02 210.13,-0.72 210.30,-0.34 210.46,0.03 210.50,0.44 210.53,0.85 210.44,1.25 210.34,1.65 210.12,2.00 209.90,2.35 209.58,2.61 209.26,2.87 208.87,3.01 208.49,3.15 208.08,3.17 207.66,3.18 207.27,3.06 206.87,2.94 206.54,2.70 206.20,2.46 205.96,2.13 205.72,1.80 205.60,1.40 205.47,1.01 205.48,0.60 205.49,0.19 205.63,-0.19 205.77,-0.58 206.03,-0.90 206.28,-1.22 206.63,-1.45 206.98,-1.67 207.38,-1.77 207.78,-1.87 208.19,-1.84 208.60,-1.81 208.98,-1.65 209.36,-1.49 209.66,-1.21 209.97,-0.94 210.18,-0.58 210.38,-0.22 210.46,0.17 210.54,0.57 210.49,0.98 210.43,1.39 210.25,1.76 210.07,2.13 210.07,2.13 210.07,2.13 208.14,4.27 206.22,6.41 204.92,7.62 203.63,8.82 202.40,9.44 201.17,10.06 198.84,11.32 196.51,12.59 194.43,13.02 192.35,13.45 190.96,13.60 189.57,13.75 188.02,13.82 186.46,13.90 184.40,14.19 182.33,14.48 179.96,14.73 177.59,14.98 175.27,15.13 172.95,15.27 170.55,15.52 168.14,15.76 166.04,15.88 163.93,15.99 161.19,15.95 158.44,15.91 156.49,15.69 154.54,15.46 152.89,15.38 151.23,15.29 149.03,15.26 146.84,15.23 144.20,15.13 141.56,15.03 138.72,14.79 135.88,14.55 133.46,14.30 131.03,14.04 128.86,13.72 126.69,13.41 124.64,12.84 122.59,12.28 121.27,11.80 119.95,11.33 118.65,11.34 117.34,11.34 115.89,11.37 114.43,11.39 112.64,11.41 110.86,11.44 109.51,11.37 108.17,11.29 106.89,12.26 105.62,13.23 104.61,14.10 103.60,14.97 102.04,15.23 100.47,15.49 99.19,14.73 97.91,13.98 96.71,13.48 95.50,12.98 94.25,12.47 92.99,11.96 91.51,11.48 90.03,10.99 88.53,10.66 87.03,10.34 85.38,10.41 83.74,10.49 81.66,10.92 79.58,11.35 78.08,11.62 76.58,11.90 75.14,12.21 73.70,12.52 71.60,12.82 69.50,13.12 68.18,13.31 66.86,13.51 65.19,13.54 63.52,13.58 61.88,13.77 60.25,13.96 58.25,13.85 56.24,13.73 54.52,13.63 52.80,13.54 51.23,13.58 49.66,13.62 47.64,13.82 45.61,14.02 43.84,14.18 42.06,14.33 40.73,14.40 39.41,14.46 38.02,14.45 36.63,14.44 35.04,14.36 33.44,14.29 31.78,14.03 30.11,13.78 28.08,13.32 26.05,12.86 23.73,12.16 21.41,11.45 20.13,10.80 18.86,10.15 16.73,9.50 14.59,8.86 13.34,8.06 12.08,7.27 10.33,6.56 8.57,5.85 7.16,5.34 5.74,4.83 3.53,4.05 1.32,3.27 0.27,2.98 -0.76,2.69 -1.08,2.56 -1.39,2.43 -1.66,2.23 -1.93,2.03 -2.14,1.77 -2.36,1.51 -2.51,1.20 -2.65,0.90 -2.72,0.56 -2.79,0.23 -2.78,-0.09 -2.77,-0.43 -2.67,-0.76 -2.58,-1.08 -2.41,-1.38 -2.25,-1.67 -2.01,-1.92 -1.78,-2.16 -1.49,-2.34 -1.21,-2.52 -0.89,-2.63 -0.57,-2.74 -0.23,-2.77 0.10,-2.80 0.43,-2.75 Z" fill="#1d1d1d" stroke="#1d1d1d" stroke-width="1" stroke-linejoin="round" stroke-linecap="round" pointer-events="none"/></g></g><g id="286ccc51-7a8d-4bf0-3422-75003e9ad015_svg" class="tl-centered-g" transform="translate(166.67, 93.67) rotate(0.00, 6.33, 51.34)"><g opacity="1"><path d="M 12.04,-0.51 Q 12.04,-0.51 12.40,1.30 12.76,3.11 12.99,4.95 13.21,6.78 13.33,8.55 13.45,10.31 13.48,12.18 13.51,14.06 13.70,15.60 13.90,17.15 13.98,18.98 14.06,20.82 14.17,22.27 14.27,23.71 14.26,25.57 14.25,27.43 14.33,28.74 14.41,30.06 14.45,31.54 14.49,33.02 14.60,35.26 14.72,37.50 14.55,40.26 14.37,43.01 13.92,45.96 13.47,48.91 13.29,50.94 13.12,52.97 12.68,55.30 12.24,57.62 11.74,59.79 11.25,61.97 10.58,63.99 9.91,66.01 9.05,68.36 8.18,70.70 7.40,73.11 6.61,75.51 6.05,76.90 5.49,78.30 5.16,80.07 4.83,81.84 4.54,83.40 4.25,84.96 3.82,86.25 3.40,87.54 3.14,89.54 2.88,91.54 2.86,93.39 2.84,95.24 2.89,96.64 2.94,98.04 2.97,100.35 2.99,102.67 2.91,103.14 2.83,103.62 2.61,104.05 2.38,104.48 2.03,104.81 1.68,105.15 1.24,105.35 0.80,105.55 0.31,105.61 -0.16,105.66 -0.63,105.55 -1.11,105.45 -1.52,105.20 -1.94,104.95 -2.25,104.58 -2.56,104.21 -2.74,103.76 -2.92,103.31 -2.95,102.82 -2.97,102.34 -2.84,101.87 -2.71,101.40 -2.44,101.00 -2.17,100.60 -1.78,100.31 -1.40,100.02 -0.94,99.86 -0.48,99.71 0.00,99.71 0.48,99.71 0.94,99.86 1.40,100.02 1.79,100.31 2.17,100.61 2.44,101.01 2.72,101.41 2.85,101.88 2.98,102.34 2.95,102.83 2.92,103.31 2.74,103.76 2.56,104.21 2.25,104.58 1.93,104.95 1.52,105.20 1.10,105.45 0.63,105.55 0.16,105.66 -0.32,105.61 -0.80,105.55 -1.24,105.35 -1.68,105.14 -2.03,104.81 -2.38,104.48 -2.61,104.05 -2.84,103.62 -2.91,103.14 -2.99,102.66 -2.99,102.66 -2.99,102.66 -2.98,100.78 -2.97,98.89 -2.89,97.48 -2.82,96.06 -2.67,94.32 -2.51,92.57 -2.29,90.60 -2.07,88.62 -1.82,87.23 -1.57,85.83 -1.05,83.95 -0.54,82.06 -0.10,80.64 0.34,79.21 0.67,77.89 1.01,76.57 1.46,75.35 1.92,74.12 2.29,72.79 2.67,71.46 3.10,70.12 3.54,68.79 4.33,66.65 5.12,64.51 5.86,62.46 6.61,60.42 7.16,58.39 7.71,56.36 8.21,54.44 8.71,52.53 9.13,50.32 9.54,48.11 9.95,45.40 10.35,42.68 10.46,40.10 10.57,37.51 10.67,35.28 10.78,33.04 10.79,31.57 10.81,30.11 10.86,28.80 10.90,27.49 10.83,25.67 10.75,23.86 10.74,22.44 10.73,21.02 10.60,19.28 10.48,17.55 10.29,15.87 10.11,14.20 9.99,12.40 9.87,10.60 9.71,8.95 9.56,7.30 9.29,5.67 9.02,4.04 8.48,2.27 7.95,0.51 7.92,0.25 7.89,0.00 7.92,-0.24 7.95,-0.49 8.04,-0.73 8.12,-0.97 8.27,-1.18 8.41,-1.39 8.60,-1.56 8.79,-1.73 9.02,-1.85 9.24,-1.96 9.49,-2.03 9.73,-2.09 9.99,-2.09 10.24,-2.09 10.49,-2.03 10.74,-1.97 10.96,-1.85 11.19,-1.73 11.38,-1.57 11.57,-1.40 11.71,-1.19 11.86,-0.98 11.95,-0.74 Z" fill="#1d1d1d" stroke="#1d1d1d" stroke-width="1" stroke-linejoin="round" stroke-linecap="round" pointer-events="none"/></g></g><g id="9401e035-8eb7-49b7-3f73-169aab4570ce_svg" class="tl-centered-g" transform="translate(168.67, 92.34) rotate(0.00, 2.67, 8.33)"><g opacity="1"><path d="M 7.73,0.64 Q 7.73,0.64 6.96,2.83 6.19,5.02 5.61,6.82 5.04,8.62 4.38,11.03 3.72,13.44 2.81,15.53 1.90,17.61 1.70,17.89 1.49,18.17 1.21,18.37 0.93,18.57 0.60,18.67 0.27,18.77 -0.07,18.76 -0.41,18.75 -0.73,18.62 -1.06,18.50 -1.32,18.29 -1.59,18.07 -1.77,17.78 -1.96,17.48 -2.04,17.15 -2.12,16.81 -2.09,16.47 -2.06,16.13 -1.92,15.81 -1.78,15.50 -1.55,15.24 -1.32,14.98 -1.02,14.82 -0.72,14.65 -0.38,14.59 -0.04,14.52 0.29,14.57 0.63,14.62 0.94,14.78 1.25,14.93 1.49,15.18 1.73,15.42 1.89,15.73 2.04,16.04 2.08,16.38 2.13,16.73 2.06,17.06 1.99,17.40 1.82,17.70 1.65,18.00 1.39,18.23 1.13,18.46 0.81,18.59 0.50,18.73 0.15,18.75 -0.18,18.78 -0.52,18.69 -0.85,18.61 -1.14,18.42 -1.43,18.23 -1.64,17.96 -1.86,17.69 -1.97,17.37 -2.09,17.04 -2.10,16.70 -2.11,16.35 -2.00,16.02 -1.90,15.70 -1.90,15.70 -1.90,15.70 -1.05,13.76 -0.20,11.83 0.55,9.74 1.31,7.65 1.69,5.78 2.07,3.92 2.50,1.64 2.92,-0.64 3.03,-0.91 3.15,-1.19 3.32,-1.44 3.50,-1.68 3.72,-1.87 3.95,-2.07 4.22,-2.20 4.49,-2.34 4.78,-2.40 5.07,-2.47 5.37,-2.46 5.67,-2.46 5.96,-2.38 6.25,-2.30 6.51,-2.16 6.78,-2.01 7.00,-1.81 7.22,-1.61 7.38,-1.36 7.55,-1.11 7.65,-0.83 7.75,-0.54 7.78,-0.25 7.81,0.04 7.77,0.34 Z" fill="#1d1d1d" stroke="#1d1d1d" stroke-width="1" stroke-linejoin="round" stroke-linecap="round" pointer-events="none"/></g></g><g id="f2a5bf66-87a9-4418-1552-c6129400254b_svg" class="tl-centered-g" transform="translate(176.00, 92.34) rotate(0.00, 7.00, 8.66)"><g opacity="1"><path d="M 2.27,-1.39 Q 2.27,-1.39 3.29,0.64 4.32,2.68 5.28,4.19 6.24,5.70 7.67,7.52 9.09,9.33 10.17,10.33 11.25,11.33 12.54,12.58 13.84,13.83 14.80,14.53 15.76,15.23 16.05,15.56 16.34,15.90 16.51,16.31 16.67,16.72 16.70,17.17 16.72,17.61 16.61,18.04 16.49,18.47 16.24,18.83 15.99,19.20 15.64,19.47 15.29,19.74 14.87,19.89 14.45,20.03 14.01,20.03 13.56,20.03 13.14,19.89 12.72,19.75 12.37,19.49 12.01,19.22 11.76,18.85 11.51,18.49 11.39,18.06 11.27,17.63 11.29,17.19 11.31,16.75 11.48,16.33 11.64,15.92 11.92,15.58 12.21,15.24 12.59,15.01 12.97,14.78 13.40,14.68 13.84,14.59 14.28,14.63 14.72,14.68 15.12,14.86 15.53,15.05 15.85,15.35 16.17,15.66 16.38,16.05 16.59,16.44 16.66,16.88 16.74,17.31 16.67,17.75 16.60,18.19 16.39,18.58 16.19,18.98 15.86,19.28 15.54,19.59 15.14,19.78 14.74,19.97 14.30,20.01 13.86,20.06 13.42,19.97 12.99,19.88 12.61,19.65 12.23,19.42 12.23,19.42 12.23,19.42 11.02,18.28 9.81,17.13 8.47,15.74 7.14,14.34 6.28,13.08 5.42,11.81 4.18,9.96 2.94,8.11 1.69,6.59 0.44,5.06 -0.91,3.23 -2.27,1.39 -2.40,1.10 -2.53,0.81 -2.60,0.49 -2.66,0.18 -2.64,-0.13 -2.62,-0.45 -2.53,-0.76 -2.44,-1.07 -2.27,-1.35 -2.11,-1.62 -1.88,-1.85 -1.66,-2.08 -1.38,-2.25 -1.11,-2.42 -0.80,-2.52 -0.50,-2.61 -0.18,-2.64 0.13,-2.66 0.45,-2.60 0.77,-2.55 1.06,-2.42 1.36,-2.29 1.61,-2.09 1.87,-1.90 2.07,-1.64 Z" fill="#1d1d1d" stroke="#1d1d1d" stroke-width="1" stroke-linejoin="round" stroke-linecap="round" pointer-events="none"/></g></g><g id="c4cf48f1-78df-4ddf-021f-c431ddca85a4_svg" class="tl-centered-g" transform="translate(154.00, 183.00) rotate(0.00, 13.66, 8.67)"><g opacity="1"><path d="M 0.81,-2.84 Q 0.81,-2.84 1.86,-2.52 2.90,-2.20 4.56,-1.44 6.22,-0.68 7.77,0.49 9.33,1.67 10.26,2.80 11.20,3.92 11.87,5.11 12.54,6.31 13.41,7.82 14.28,9.33 15.55,10.88 16.83,12.44 17.19,10.82 17.56,9.19 18.67,8.01 19.77,6.82 20.99,5.60 22.21,4.38 24.10,3.34 25.99,2.31 26.50,2.18 27.02,2.04 27.56,2.08 28.09,2.12 28.58,2.32 29.08,2.53 29.48,2.88 29.88,3.24 30.15,3.70 30.42,4.16 30.52,4.69 30.63,5.21 30.56,5.74 30.50,6.27 30.26,6.75 30.03,7.24 29.66,7.62 29.28,8.00 28.81,8.24 28.33,8.49 27.80,8.56 27.27,8.64 26.74,8.55 26.22,8.45 25.75,8.19 25.28,7.93 24.92,7.54 24.56,7.15 24.34,6.66 24.12,6.17 24.07,5.63 24.03,5.10 24.15,4.58 24.27,4.06 24.56,3.61 24.84,3.15 25.25,2.81 25.67,2.47 26.17,2.28 26.67,2.09 27.20,2.07 27.74,2.05 28.25,2.21 28.76,2.36 29.20,2.66 29.64,2.97 29.96,3.40 30.27,3.83 30.44,4.34 30.60,4.85 30.59,5.39 30.58,5.92 30.40,6.43 30.22,6.93 29.89,7.35 29.56,7.77 29.11,8.07 28.66,8.36 28.66,8.36 28.66,8.36 27.39,9.14 26.13,9.92 24.83,10.92 23.53,11.92 22.65,13.15 21.78,14.37 20.86,15.64 19.94,16.90 18.54,17.88 17.15,18.85 15.16,18.40 13.18,17.95 12.33,16.92 11.49,15.89 10.54,14.60 9.60,13.30 8.58,11.53 7.56,9.76 6.74,8.29 5.92,6.81 4.95,5.78 3.99,4.76 2.63,4.08 1.27,3.40 0.22,3.12 -0.81,2.84 -1.14,2.70 -1.47,2.56 -1.75,2.35 -2.04,2.13 -2.27,1.86 -2.49,1.58 -2.65,1.26 -2.80,0.94 -2.87,0.59 -2.94,0.24 -2.93,-0.11 -2.92,-0.46 -2.82,-0.81 -2.72,-1.15 -2.54,-1.46 -2.36,-1.77 -2.12,-2.02 -1.87,-2.28 -1.57,-2.47 -1.27,-2.67 -0.93,-2.78 -0.59,-2.89 -0.24,-2.92 0.11,-2.95 0.46,-2.90 Z" fill="#1d1d1d" stroke="#1d1d1d" stroke-width="1" stroke-linejoin="round" stroke-linecap="round" pointer-events="none"/></g></g><g text-align="center" text-anchor="middle" fill="#1d1d1d" transform="translate(205.16, 128.68) rotate(0.00, 81.50, 19.00)"><text y="14" letter-spacing="-0.84" font-size="28px" font-family="Caveat Brush" text-align="center" alignment-baseline="central" x="81.5">Multi tenant MQ</text></g><g id="d8cd4e20-b365-4389-292e-0611c5a1811e_svg" class="tl-centered-g" transform="translate(259.33, 240.34) rotate(0.00, 72.00, 0.50)"><defs><mask id="d8cd4e20-b365-4389-292e-0611c5a1811e_clip"><rect x="-100" y="-100" width="344" height="201" fill="white"/><rect x="72" y="0" width="0" height="0" rx="4" ry="4" fill="black" opacity="1"/></mask></defs><g pointer-events="none" opacity="1" mask=""><path d="M 144,0.92 Q 144,0.92 126.25,0.89 108.5,0.85 90.75,0.83 73,0.80 55.25,0.78 37.5,0.76 19.75,0.74 2,0.73 1.88,0.71 1.76,0.69 1.66,0.64 1.55,0.58 1.47,0.49 1.39,0.41 1.34,0.30 1.29,0.19 1.27,0.07 1.26,-0.03 1.29,-0.15 1.31,-0.27 1.37,-0.37 1.44,-0.47 1.53,-0.55 1.62,-0.62 1.73,-0.67 1.84,-0.71 1.96,-0.72 2.07,-0.72 2.19,-0.69 2.30,-0.66 2.40,-0.59 2.50,-0.53 2.57,-0.43 2.64,-0.34 2.68,-0.23 2.72,-0.11 2.72,0.00 2.72,0.11 2.68,0.23 2.64,0.34 2.57,0.43 2.50,0.53 2.40,0.59 2.30,0.66 2.19,0.69 2.07,0.72 1.96,0.72 1.84,0.71 1.73,0.67 1.62,0.62 1.53,0.55 1.44,0.47 1.37,0.37 1.31,0.27 1.29,0.15 1.26,0.03 1.27,-0.07 1.29,-0.19 1.34,-0.30 1.39,-0.41 1.47,-0.49 1.55,-0.58 1.66,-0.64 1.76,-0.69 1.88,-0.71 2.00,-0.73 2.00,-0.73 2,-0.73 19.75,-0.74 37.5,-0.76 55.25,-0.78 73,-0.80 90.75,-0.83 108.5,-0.85 126.25,-0.89 144,-0.92 144.11,-0.91 144.22,-0.90 144.32,-0.86 144.43,-0.82 144.52,-0.75 144.61,-0.69 144.69,-0.61 144.76,-0.52 144.81,-0.42 144.86,-0.32 144.89,-0.22 144.92,-0.11 144.92,0.00 144.92,0.11 144.89,0.22 144.86,0.32 144.81,0.42 144.76,0.52 144.69,0.61 144.61,0.69 144.52,0.75 144.43,0.82 144.32,0.86 144.22,0.90 144.11,0.91 Z" fill="#1d1d1d" stroke="#1d1d1d" stroke-width="2.11" stroke-dasharray="none" stroke-dashoffset="none" stroke-linecap="round" stroke-linejoin="round" pointer-events="stroke"/><g><path d="M 13.85,7.999999999999999 L 0,0 13.85,-7.999999999999999" fill="none" stroke="#1d1d1d" stroke-width="4.23" stroke-linecap="round" stroke-linejoin="round" pointer-events="none"/></g></g></g><g text-align="center" text-anchor="middle" fill="#1d1d1d" transform="translate(414.66, 206.67) rotate(0.00, 114.00, 33.00)"><text y="14" letter-spacing="-0.84" font-size="28px" font-family="Caveat Brush" text-align="center" alignment-baseline="central" x="114">Online edit WASM to do </text><text y="42" letter-spacing="-0.84" font-size="28px" font-family="Caveat Brush" text-align="center" alignment-baseline="central" x="114">protocol translator</text></g></svg>